<svg id="kity_svg_6" xmlns="http://www.w3.org/2000/svg" xmlns:xlink="http://www.w3.org/1999/xlink" version="1.1" width="948" height="223" style="background: rgb(251, 251, 251); visibility: visible;" viewBox="0 0 948 223"><defs id="kity_defs_7"><linearGradient id="kity_linearGradient_17" x1="0" y1="0" x2="0" y2="1"><stop id="kity_stop_18" offset="0" stop-color="rgb(255, 255, 255)"></stop><stop id="kity_stop_19" offset="1" stop-color="rgb(204, 204, 204)"></stop></linearGradient><marker id="kity_marker_2" orient="auto" refX="6" refY="0" viewBox="-7 -7 14 14" markerWidth="7" markerHeight="7" markerUnits="userSpaceOnUse"><path id="kity_path_3" fill="rgb(115, 161, 191)" stroke="none" d="M6,0A6,6,0,1,1,-6,0A6,6,0,1,1,6,0"></path></marker></defs><g id="kity_g_8"><g id="minder1" text-rendering="optimize-speed"><g id="minder_connect_group1"><path id="kity_path_31" fill="none" stroke="rgb(115, 161, 191)" stroke-width="1" d="M482.5,111.5A155,2,0,0,1,637.5,109.5"></path><path id="kity_path_33" fill="none" stroke="rgb(115, 161, 191)" stroke-width="1" d="M739.5,109.5C754.5,109.5,754.5,45.5,769.5,45.5L928.5,45.5"></path><path id="kity_path_35" fill="none" stroke="rgb(115, 161, 191)" stroke-width="1" d="M739.5,109.5C754.5,109.5,754.5,97.5,769.5,97.5L883.5,97.5"></path><path id="kity_path_37" fill="none" stroke="rgb(115, 161, 191)" stroke-width="1" d="M739.5,109.5C754.5,109.5,754.5,149.5,769.5,149.5L907.5,149.5"></path><path id="kity_path_39" fill="none" stroke="rgb(115, 161, 191)" stroke-width="1" d="M739.5,109.5C754.5,109.5,754.5,201.5,769.5,201.5L911.5,201.5"></path><path id="kity_path_41" fill="none" stroke="rgb(115, 161, 191)" stroke-width="1" d="M482.5,111.5A145,0,0,0,1,337.5,111.5"></path><path id="kity_path_43" fill="none" stroke="rgb(115, 161, 191)" stroke-width="1" d="M152.5,111.5C137.5,111.5,137.5,47.5,122.5,47.5L31.5,47.5"></path><path id="kity_path_45" fill="none" stroke="rgb(115, 161, 191)" stroke-width="1" d="M152.5,111.5C137.5,111.5,137.5,99.5,122.5,99.5L30.5,99.5"></path><path id="kity_path_47" fill="none" stroke="rgb(115, 161, 191)" stroke-width="1" d="M152.5,111.5C137.5,111.5,137.5,151.5,122.5,151.5L44.5,151.5"></path><path id="kity_path_49" fill="none" stroke="rgb(115, 161, 191)" stroke-width="1" d="M152.5,111.5C137.5,111.5,137.5,203.5,122.5,203.5L20.5,203.5"></path></g><g id="minder_node1"><path id="node_outline1" fill="rgb(115, 161, 191)" stroke="rgb(57, 80, 96)" d="M355.5,91.5h254a5,5,0,0,1,5,5v30a5,5,0,0,1,-5,5h-254a5,5,0,0,1,-5,-5v-30a5,5,0,0,1,5,-5z" stroke-width="3"></path><g id="node_text1" fill="white"><text id="kity_text_22" text-rendering="inherit" font-size="16" dy=".8em" y="103.5" x="374.5">cookie和localStorage的区别</text></g></g><g id="kity_g_12"><path id="kity_path_13" fill="none" stroke="none" d="M374.5,111.5h0v0h0z"></path></g><g id="kity_g_14"><path id="kity_path_15" fill="none" stroke="none" d="M374.5,111.5h0v0h0z"></path><path id="kity_path_16" fill="none" stroke="none"></path></g><g id="minder_node2"><g id="node_expander5" style="cursor: pointer;"><path id="kity_path_93" fill="white" stroke="gray" d="M638.5,109.5A6,6,0,1,1,626.5,109.5A6,6,0,1,1,638.5,109.5"></path><path id="kity_path_94" fill="none" stroke="gray" d="M628,109.5L637,109.5"></path></g><path id="node_outline6" fill="rgb(238, 243, 246)" stroke="rgb(115, 161, 191)" d="M642.5,96.5h94a3,3,0,0,1,3,3v20a3,3,0,0,1,-3,3h-94a3,3,0,0,1,-3,-3v-20a3,3,0,0,1,3,-3z" stroke-width="1"></path><g id="node_text6" fill="black"><text id="kity_text_59" text-rendering="inherit" font-size="14" dy=".8em" y="102.5" x="659.5">cookie：</text></g></g><g id="minder_node3"><g id="node_expander1" display="none" style="cursor: pointer;"><path id="kity_path_81" fill="white" stroke="gray" d="M779.5,31.5A6,6,0,1,1,767.5,31.5A6,6,0,1,1,779.5,31.5"></path><path id="kity_path_82" fill="none" stroke="gray"></path></g><path id="node_outline2" fill="none" stroke="none" d="M784.5,20.5h139a5,5,0,0,1,5,5v12a5,5,0,0,1,-5,5h-139a5,5,0,0,1,-5,-5v-12a5,5,0,0,1,5,-5z"></path><g id="node_text2" fill="black"><text id="kity_text_51" text-rendering="inherit" font-size="12" dy=".8em" y="25.5" x="789.5">大小限制：只能存储4kb</text></g></g><g id="minder_node4"><g id="node_expander2" display="none" style="cursor: pointer;"><path id="kity_path_84" fill="white" stroke="gray" d="M779.5,83.5A6,6,0,1,1,767.5,83.5A6,6,0,1,1,779.5,83.5"></path><path id="kity_path_85" fill="none" stroke="gray"></path></g><path id="node_outline3" fill="none" stroke="none" d="M784.5,72.5h94a5,5,0,0,1,5,5v12a5,5,0,0,1,-5,5h-94a5,5,0,0,1,-5,-5v-12a5,5,0,0,1,5,-5z"></path><g id="node_text3" fill="black"><text id="kity_text_53" text-rendering="inherit" font-size="12" dy=".8em" y="77.5" x="789.5">兼容所有浏览器</text></g></g><g id="minder_node5"><g id="node_expander3" display="none" style="cursor: pointer;"><path id="kity_path_87" fill="white" stroke="gray" d="M779.5,135.5A6,6,0,1,1,767.5,135.5A6,6,0,1,1,779.5,135.5"></path><path id="kity_path_88" fill="none" stroke="gray"></path></g><path id="node_outline4" fill="none" stroke="none" d="M784.5,124.5h118a5,5,0,0,1,5,5v12a5,5,0,0,1,-5,5h-118a5,5,0,0,1,-5,-5v-12a5,5,0,0,1,5,-5z"></path><g id="node_text4" fill="black"><text id="kity_text_55" text-rendering="inherit" font-size="12" dy=".8em" y="129.5" x="789.5">存储内容有过期时间</text></g></g><g id="minder_node6"><g id="node_expander4" display="none" style="cursor: pointer;"><path id="kity_path_90" fill="white" stroke="gray" d="M779.5,187.5A6,6,0,1,1,767.5,187.5A6,6,0,1,1,779.5,187.5"></path><path id="kity_path_91" fill="none" stroke="gray"></path></g><path id="node_outline5" fill="none" stroke="none" d="M784.5,176.5h122a5,5,0,0,1,5,5v12a5,5,0,0,1,-5,5h-122a5,5,0,0,1,-5,-5v-12a5,5,0,0,1,5,-5z"></path><g id="node_text5" fill="black"><text id="kity_text_57" text-rendering="inherit" font-size="12" dy=".8em" y="181.5" x="789.5">用户可以禁用cookie</text></g></g><g id="minder_node7"><g id="node_expander10" style="cursor: pointer;"><path id="kity_path_108" fill="white" stroke="gray" d="M348.5,111.5A6,6,0,1,1,336.5,111.5A6,6,0,1,1,348.5,111.5"></path><path id="kity_path_109" fill="none" stroke="gray" d="M338,111.5L347,111.5"></path></g><path id="node_outline11" fill="rgb(238, 243, 246)" stroke="rgb(115, 161, 191)" d="M155.5,98.5h177a3,3,0,0,1,3,3v20a3,3,0,0,1,-3,3h-177a3,3,0,0,1,-3,-3v-20a3,3,0,0,1,3,-3z" stroke-width="1"></path><g id="node_text11" fill="black"><text id="kity_text_69" text-rendering="inherit" font-size="14" dy=".8em" y="104.5" x="172.5">localStorage存储5MB</text></g></g><g id="minder_node8"><g id="node_expander6" display="none" style="cursor: pointer;"><path id="kity_path_96" fill="white" stroke="gray" d="M124.5,33.5A6,6,0,1,1,112.5,33.5A6,6,0,1,1,124.5,33.5"></path><path id="kity_path_97" fill="none" stroke="gray"></path></g><path id="node_outline7" fill="none" stroke="none" d="M36.5,22.5h71a5,5,0,0,1,5,5v12a5,5,0,0,1,-5,5h-71a5,5,0,0,1,-5,-5v-12a5,5,0,0,1,5,-5z"></path><g id="node_text7" fill="black"><text id="kity_text_61" text-rendering="inherit" font-size="12" dy=".8em" y="27.5" x="41.5">大小：5MB</text></g></g><g id="minder_node9"><g id="node_expander7" display="none" style="cursor: pointer;"><path id="kity_path_99" fill="white" stroke="gray" d="M124.5,85.5A6,6,0,1,1,112.5,85.5A6,6,0,1,1,124.5,85.5"></path><path id="kity_path_100" fill="none" stroke="gray"></path></g><path id="node_outline8" fill="none" stroke="none" d="M35.5,74.5h72a5,5,0,0,1,5,5v12a5,5,0,0,1,-5,5h-72a5,5,0,0,1,-5,-5v-12a5,5,0,0,1,5,-5z"></path><g id="node_text8" fill="black"><text id="kity_text_63" text-rendering="inherit" font-size="12" dy=".8em" y="79.5" x="40.5">不兼容IE6-8</text></g></g><g id="minder_node10"><g id="node_expander8" display="none" style="cursor: pointer;"><path id="kity_path_102" fill="white" stroke="gray" d="M124.5,137.5A6,6,0,1,1,112.5,137.5A6,6,0,1,1,124.5,137.5"></path><path id="kity_path_103" fill="none" stroke="gray"></path></g><path id="node_outline9" fill="none" stroke="none" d="M49.5,126.5h58a5,5,0,0,1,5,5v12a5,5,0,0,1,-5,5h-58a5,5,0,0,1,-5,-5v-12a5,5,0,0,1,5,-5z"></path><g id="node_text9" fill="black"><text id="kity_text_65" text-rendering="inherit" font-size="12" dy=".8em" y="131.5" x="54.5">永久存储</text></g></g><g id="minder_node11"><g id="node_expander9" display="none" style="cursor: pointer;"><path id="kity_path_105" fill="white" stroke="gray" d="M124.5,189.5A6,6,0,1,1,112.5,189.5A6,6,0,1,1,124.5,189.5"></path><path id="kity_path_106" fill="none" stroke="gray"></path></g><path id="node_outline10" fill="none" stroke="none" d="M25.5,178.5h82a5,5,0,0,1,5,5v12a5,5,0,0,1,-5,5h-82a5,5,0,0,1,-5,-5v-12a5,5,0,0,1,5,-5z"></path><g id="node_text10" fill="black"><text id="kity_text_67" text-rendering="inherit" font-size="12" dy=".8em" y="183.5" x="30.5">用户不能禁止</text></g></g></g></g></svg>