<svg id="kity_svg_6" xmlns="http://www.w3.org/2000/svg" xmlns:xlink="http://www.w3.org/1999/xlink" version="1.1" width="744" height="577" style="background: rgb(251, 251, 251); visibility: visible;" viewBox="0 0 744 577"><defs id="kity_defs_7"><linearGradient id="kity_linearGradient_17" x1="0" y1="0" x2="0" y2="1"><stop id="kity_stop_18" offset="0" stop-color="rgb(255, 255, 255)"></stop><stop id="kity_stop_19" offset="1" stop-color="rgb(204, 204, 204)"></stop></linearGradient><marker id="kity_marker_2" orient="auto" refX="6" refY="0" viewBox="-7 -7 14 14" markerWidth="7" markerHeight="7" markerUnits="userSpaceOnUse"><path id="kity_path_3" fill="rgb(115, 161, 191)" stroke="none" d="M6,0A6,6,0,1,1,-6,0A6,6,0,1,1,6,0"></path></marker></defs><g id="kity_g_8"><g id="minder1" text-rendering="optimize-speed"><g id="minder_connect_group1"><path id="kity_path_31" fill="none" stroke="rgb(115, 161, 191)" stroke-width="1" d="M335.5,60.5v30h-215V110.5"></path><path id="kity_path_33" fill="none" stroke="rgb(115, 161, 191)" stroke-width="1" d="M120.5,136.5v20h-60V171.5"></path><path id="kity_path_35" fill="none" stroke="rgb(115, 161, 191)" stroke-width="1" d="M60.5,193.5v15h0V223.5"></path><path id="kity_path_37" fill="none" stroke="rgb(115, 161, 191)" stroke-width="1" d="M120.5,136.5v20h60.5V171.5"></path><path id="kity_path_39" fill="none" stroke="rgb(115, 161, 191)" stroke-width="1" d="M181.5,193.5v15h0.5V223.5"></path><path id="kity_path_41" fill="none" stroke="rgb(115, 161, 191)" stroke-width="1" d="M335.5,60.5v30h176V110.5"></path><path id="kity_path_43" fill="none" stroke="rgb(115, 161, 191)" stroke-width="1" d="M511.5,136.5v20h-129V171.5"></path><path id="kity_path_45" fill="none" stroke="rgb(115, 161, 191)" stroke-width="1" d="M382.5,193.5v15h0V223.5"></path><path id="kity_path_47" fill="none" stroke="rgb(115, 161, 191)" stroke-width="1" d="M382.5,245.5v15h0V275.5"></path><path id="kity_path_49" fill="none" stroke="rgb(115, 161, 191)" stroke-width="1" d="M382.5,297.5v15h0V327.5"></path><path id="kity_path_51" fill="none" stroke="rgb(115, 161, 191)" stroke-width="1" d="M382.5,349.5v15h0V379.5"></path><path id="kity_path_53" fill="none" stroke="rgb(115, 161, 191)" stroke-width="1" d="M382.5,401.5v15h0.5V431.5"></path><path id="kity_path_55" fill="none" stroke="rgb(115, 161, 191)" stroke-width="1" d="M383.5,453.5v15h0V483.5"></path><path id="kity_path_57" fill="none" stroke="rgb(115, 161, 191)" stroke-width="1" d="M383.5,505.5v15h0V535.5"></path><path id="kity_path_59" fill="none" stroke="rgb(115, 161, 191)" stroke-width="1" d="M511.5,136.5v20h123.5V171.5"></path><path id="kity_path_61" fill="none" stroke="rgb(115, 161, 191)" stroke-width="1" d="M635.5,193.5v15h0V223.5"></path><path id="kity_path_63" fill="none" stroke="rgb(115, 161, 191)" stroke-width="1" d="M635.5,245.5v15h0.5V275.5"></path><path id="kity_path_65" fill="none" stroke="rgb(115, 161, 191)" stroke-width="1" d="M635.5,297.5v15h0V327.5"></path></g><g id="minder_node1"><path id="node_outline1" fill="rgb(115, 161, 191)" stroke="rgb(115, 161, 191)" d="M268.5,20.5h134a5,5,0,0,1,5,5v30a5,5,0,0,1,-5,5h-134a5,5,0,0,1,-5,-5v-30a5,5,0,0,1,5,-5z" stroke-width="3"></path><g id="node_text1" fill="white"><text id="kity_text_22" text-rendering="inherit" font-size="16" dy=".8em" y="32.5" x="287.5">本地存储方案</text></g></g><g id="kity_g_12"><path id="kity_path_13" fill="none" stroke="none" d="M287.5,40.5h0v0h0z"></path></g><g id="kity_g_14"><path id="kity_path_15" fill="none" stroke="none" d="M287.5,40.5h0v0h0z"></path><path id="kity_path_16" fill="none" stroke="none"></path></g><g id="minder_node2"><g id="node_expander5" style="cursor: pointer;"><path id="kity_path_133" fill="white" stroke="gray" d="M126.5,103.5A6,6,0,1,1,114.5,103.5A6,6,0,1,1,126.5,103.5"></path><path id="kity_path_134" fill="none" stroke="gray" d="M116,103.5L125,103.5"></path></g><path id="node_outline6" fill="rgb(238, 243, 246)" stroke="rgb(115, 161, 191)" d="M75.5,110.5h90a3,3,0,0,1,3,3v20a3,3,0,0,1,-3,3h-90a3,3,0,0,1,-3,-3v-20a3,3,0,0,1,3,-3z" stroke-width="1"></path><g id="node_text6" fill="black"><text id="kity_text_75" text-rendering="inherit" font-size="14" dy=".8em" y="116.5" x="92.5">传统方案</text></g></g><g id="minder_node3"><g id="node_expander2" style="cursor: pointer;"><path id="kity_path_124" fill="white" stroke="gray" d="M66.5,165.5A6,6,0,1,1,54.5,165.5A6,6,0,1,1,66.5,165.5"></path><path id="kity_path_125" fill="none" stroke="gray" d="M56,165.5L65,165.5"></path></g><path id="node_outline3" fill="none" stroke="none" d="M35.5,171.5h50a5,5,0,0,1,5,5v12a5,5,0,0,1,-5,5h-50a5,5,0,0,1,-5,-5v-12a5,5,0,0,1,5,-5z"></path><g id="node_text3" fill="black"><text id="kity_text_69" text-rendering="inherit" font-size="12" dy=".8em" y="176.5" x="40.5">cookie</text></g></g><g id="minder_node4"><g id="node_expander1" display="none" style="cursor: pointer;"><path id="kity_path_121" fill="white" stroke="gray" d="M66.5,217.5A6,6,0,1,1,54.5,217.5A6,6,0,1,1,66.5,217.5"></path><path id="kity_path_122" fill="none" stroke="gray"></path></g><path id="node_outline2" fill="none" stroke="none" d="M25.5,223.5h70a5,5,0,0,1,5,5v12a5,5,0,0,1,-5,5h-70a5,5,0,0,1,-5,-5v-12a5,5,0,0,1,5,-5z"></path><g id="node_text2" fill="black"><text id="kity_text_67" text-rendering="inherit" font-size="12" dy=".8em" y="228.5" x="30.5">客户端存储</text></g></g><g id="minder_node5"><g id="node_expander4" style="cursor: pointer;"><path id="kity_path_130" fill="white" stroke="gray" d="M187,165.5A6,6,0,1,1,175,165.5A6,6,0,1,1,187,165.5"></path><path id="kity_path_131" fill="none" stroke="gray" d="M176.5,165.5L185.5,165.5"></path></g><path id="node_outline5" fill="none" stroke="none" d="M156.5,171.5h49a5,5,0,0,1,5,5v12a5,5,0,0,1,-5,5h-49a5,5,0,0,1,-5,-5v-12a5,5,0,0,1,5,-5z"></path><g id="node_text5" fill="black"><text id="kity_text_73" text-rendering="inherit" font-size="12" dy=".8em" y="176.5" x="161.5">session</text></g></g><g id="minder_node6"><g id="node_expander3" display="none" style="cursor: pointer;"><path id="kity_path_127" fill="white" stroke="gray" d="M187.5,217.5A6,6,0,1,1,175.5,217.5A6,6,0,1,1,187.5,217.5"></path><path id="kity_path_128" fill="none" stroke="gray"></path></g><path id="node_outline4" fill="none" stroke="none" d="M146.5,223.5h70a5,5,0,0,1,5,5v12a5,5,0,0,1,-5,5h-70a5,5,0,0,1,-5,-5v-12a5,5,0,0,1,5,-5z"></path><g id="node_text4" fill="black"><text id="kity_text_71" text-rendering="inherit" font-size="12" dy=".8em" y="228.5" x="151.5">服务器存储</text></g></g><g id="minder_node7"><g id="node_expander18" style="cursor: pointer;"><path id="kity_path_172" fill="white" stroke="gray" d="M517.5,103.5A6,6,0,1,1,505.5,103.5A6,6,0,1,1,517.5,103.5"></path><path id="kity_path_173" fill="none" stroke="gray" d="M507,103.5L516,103.5"></path></g><path id="node_outline19" fill="rgb(238, 243, 246)" stroke="rgb(115, 161, 191)" d="M427.5,110.5h168a3,3,0,0,1,3,3v20a3,3,0,0,1,-3,3h-168a3,3,0,0,1,-3,-3v-20a3,3,0,0,1,3,-3z" stroke-width="1"></path><g id="node_text19" fill="black"><text id="kity_text_101" text-rendering="inherit" font-size="14" dy=".8em" y="116.5" x="444.5">html5：webStorage</text></g></g><g id="minder_node8"><g id="node_expander13" style="cursor: pointer;"><path id="kity_path_157" fill="white" stroke="gray" d="M388.5,165.5A6,6,0,1,1,376.5,165.5A6,6,0,1,1,388.5,165.5"></path><path id="kity_path_158" fill="none" stroke="gray" d="M378,165.5L387,165.5"></path></g><path id="node_outline14" fill="none" stroke="none" d="M340.5,171.5h84a5,5,0,0,1,5,5v12a5,5,0,0,1,-5,5h-84a5,5,0,0,1,-5,-5v-12a5,5,0,0,1,5,-5z"></path><g id="node_text14" fill="black"><text id="kity_text_91" text-rendering="inherit" font-size="12" dy=".8em" y="176.5" x="345.5">localStorage</text></g></g><g id="minder_node9"><g id="node_expander12" style="cursor: pointer;"><path id="kity_path_154" fill="white" stroke="gray" d="M388.5,217.5A6,6,0,1,1,376.5,217.5A6,6,0,1,1,388.5,217.5"></path><path id="kity_path_155" fill="none" stroke="gray" d="M378,217.5L387,217.5"></path></g><path id="node_outline13" fill="none" stroke="none" d="M311.5,223.5h142a5,5,0,0,1,5,5v12a5,5,0,0,1,-5,5h-142a5,5,0,0,1,-5,-5v-12a5,5,0,0,1,5,-5z" stroke-width="3"></path><g id="node_text13" fill="black"><text id="kity_text_89" text-rendering="inherit" font-size="12" dy=".8em" y="228.5" x="316.5">永久存储到客户端的本地</text></g></g><g id="minder_node10"><g id="node_expander11" style="cursor: pointer;"><path id="kity_path_151" fill="white" stroke="gray" d="M388.5,269.5A6,6,0,1,1,376.5,269.5A6,6,0,1,1,388.5,269.5"></path><path id="kity_path_152" fill="none" stroke="gray" d="M378,269.5L387,269.5"></path></g><path id="node_outline12" fill="none" stroke="none" d="M293.5,275.5h178a5,5,0,0,1,5,5v12a5,5,0,0,1,-5,5h-178a5,5,0,0,1,-5,-5v-12a5,5,0,0,1,5,-5z"></path><g id="node_text12" fill="black"><text id="kity_text_87" text-rendering="inherit" font-size="12" dy=".8em" y="280.5" x="298.5">.setItem('age', 7)存储一条记录</text></g></g><g id="minder_node11"><g id="node_expander10" style="cursor: pointer;"><path id="kity_path_148" fill="white" stroke="gray" d="M388.5,321.5A6,6,0,1,1,376.5,321.5A6,6,0,1,1,388.5,321.5"></path><path id="kity_path_149" fill="none" stroke="gray" d="M378,321.5L387,321.5"></path></g><path id="node_outline11" fill="none" stroke="none" d="M296.5,327.5h172a5,5,0,0,1,5,5v12a5,5,0,0,1,-5,5h-172a5,5,0,0,1,-5,-5v-12a5,5,0,0,1,5,-5z"></path><g id="node_text11" fill="black"><text id="kity_text_85" text-rendering="inherit" font-size="12" dy=".8em" y="332.5" x="301.5">.getItem('age') 获取一条记录</text></g></g><g id="minder_node12"><g id="node_expander9" style="cursor: pointer;"><path id="kity_path_145" fill="white" stroke="gray" d="M388.5,373.5A6,6,0,1,1,376.5,373.5A6,6,0,1,1,388.5,373.5"></path><path id="kity_path_146" fill="none" stroke="gray" d="M378,373.5L387,373.5"></path></g><path id="node_outline10" fill="none" stroke="none" d="M321.5,379.5h122a5,5,0,0,1,5,5v12a5,5,0,0,1,-5,5h-122a5,5,0,0,1,-5,-5v-12a5,5,0,0,1,5,-5z"></path><g id="node_text10" fill="black"><text id="kity_text_83" text-rendering="inherit" font-size="12" dy=".8em" y="384.5" x="326.5">.removeItem('age')</text></g></g><g id="minder_node13"><g id="node_expander8" style="cursor: pointer;"><path id="kity_path_142" fill="white" stroke="gray" d="M389,425.5A6,6,0,1,1,377,425.5A6,6,0,1,1,389,425.5"></path><path id="kity_path_143" fill="none" stroke="gray" d="M378.5,425.5L387.5,425.5"></path></g><path id="node_outline9" fill="none" stroke="none" d="M265.5,431.5h235a5,5,0,0,1,5,5v12a5,5,0,0,1,-5,5h-235a5,5,0,0,1,-5,-5v-12a5,5,0,0,1,5,-5z"></path><g id="node_text9" fill="black"><text id="kity_text_81" text-rendering="inherit" font-size="12" dy=".8em" y="436.5" x="270.5">.clear() 把当前源下所有的存储记录都删除</text></g></g><g id="minder_node14"><g id="node_expander7" style="cursor: pointer;"><path id="kity_path_139" fill="white" stroke="gray" d="M389,477.5A6,6,0,1,1,377,477.5A6,6,0,1,1,389,477.5"></path><path id="kity_path_140" fill="none" stroke="gray" d="M378.5,477.5L387.5,477.5"></path></g><path id="node_outline8" fill="none" stroke="none" d="M306.5,483.5h153a5,5,0,0,1,5,5v12a5,5,0,0,1,-5,5h-153a5,5,0,0,1,-5,-5v-12a5,5,0,0,1,5,-5z"></path><g id="node_text8" fill="black"><text id="kity_text_79" text-rendering="inherit" font-size="12" dy=".8em" y="488.5" x="311.5">.length :获取存储记录条数</text></g></g><g id="minder_node15"><g id="node_expander6" display="none" style="cursor: pointer;"><path id="kity_path_136" fill="white" stroke="gray" d="M389,529.5A6,6,0,1,1,377,529.5A6,6,0,1,1,389,529.5"></path><path id="kity_path_137" fill="none" stroke="gray"></path></g><path id="node_outline7" fill="none" stroke="none" d="M277.5,535.5h211a5,5,0,0,1,5,5v12a5,5,0,0,1,-5,5h-211a5,5,0,0,1,-5,-5v-12a5,5,0,0,1,5,-5z"></path><g id="node_text7" fill="black"><text id="kity_text_77" text-rendering="inherit" font-size="12" dy=".8em" y="540.5" x="282.5">.key[0] :获取索引值 0 这一项的key 值</text></g></g><g id="minder_node16"><g id="node_expander17" style="cursor: pointer;"><path id="kity_path_169" fill="white" stroke="gray" d="M641,165.5A6,6,0,1,1,629,165.5A6,6,0,1,1,641,165.5"></path><path id="kity_path_170" fill="none" stroke="gray" d="M630.5,165.5L639.5,165.5"></path></g><path id="node_outline18" fill="none" stroke="none" d="M587.5,171.5h95a5,5,0,0,1,5,5v12a5,5,0,0,1,-5,5h-95a5,5,0,0,1,-5,-5v-12a5,5,0,0,1,5,-5z"></path><g id="node_text18" fill="black"><text id="kity_text_99" text-rendering="inherit" font-size="12" dy=".8em" y="176.5" x="592.5">sessionStorage</text></g></g><g id="minder_node17"><g id="node_expander16" style="cursor: pointer;"><path id="kity_path_166" fill="white" stroke="gray" d="M641,217.5A6,6,0,1,1,629,217.5A6,6,0,1,1,641,217.5"></path><path id="kity_path_167" fill="none" stroke="gray" d="M630.5,217.5L639.5,217.5"></path></g><path id="node_outline17" fill="none" stroke="none" d="M550.5,223.5h169a5,5,0,0,1,5,5v12a5,5,0,0,1,-5,5h-169a5,5,0,0,1,-5,-5v-12a5,5,0,0,1,5,-5z"></path><g id="node_text17" fill="black"><text id="kity_text_97" text-rendering="inherit" font-size="12" dy=".8em" y="228.5" x="555.5">会话存储 浏览器关闭存储消失</text></g></g><g id="minder_node18"><g id="node_expander15" style="cursor: pointer;"><path id="kity_path_163" fill="white" stroke="gray" d="M641.5,269.5A6,6,0,1,1,629.5,269.5A6,6,0,1,1,641.5,269.5"></path><path id="kity_path_164" fill="none" stroke="gray" d="M631,269.5L640,269.5"></path></g><path id="node_outline16" fill="none" stroke="none" d="M563.5,275.5h144a5,5,0,0,1,5,5v12a5,5,0,0,1,-5,5h-144a5,5,0,0,1,-5,-5v-12a5,5,0,0,1,5,-5z"></path><g id="node_text16" fill="black"><text id="kity_text_95" text-rendering="inherit" font-size="12" dy=".8em" y="280.5" x="568.5">用法与localStorage一样</text></g></g><g id="minder_node19"><g id="node_expander14" display="none" style="cursor: pointer;"><path id="kity_path_160" fill="white" stroke="gray" d="M641.5,321.5A6,6,0,1,1,629.5,321.5A6,6,0,1,1,641.5,321.5"></path><path id="kity_path_161" fill="none" stroke="gray"></path></g><path id="node_outline15" fill="none" stroke="none" d="M606.5,327.5h58a5,5,0,0,1,5,5v12a5,5,0,0,1,-5,5h-58a5,5,0,0,1,-5,-5v-12a5,5,0,0,1,5,-5z"></path><g id="node_text15" fill="black"><text id="kity_text_93" text-rendering="inherit" font-size="12" dy=".8em" y="332.5" x="611.5">分支主题</text></g></g></g></g></svg>